<mxfile host="app.diagrams.net" modified="2023-01-20T06:33:55.072Z" agent="5.0 (Windows NT 10.0; Win64; x64) AppleWebKit/537.36 (KHTML, like Gecko) Chrome/109.0.0.0 Safari/537.36" version="20.8.3" etag="CkNk9ZX_KlFWiuhpmk3j" type="github">
  <diagram id="vt7VpM-sISBdrCjUS4Yo" name="第 1 页">
    <mxGraphModel dx="4705" dy="752" grid="1" gridSize="10" guides="1" tooltips="1" connect="1" arrows="1" fold="1" page="1" pageScale="1" pageWidth="3300" pageHeight="4681" math="0" shadow="0">
      <root>
        <mxCell id="0" />
        <mxCell id="1" parent="0" />
        <mxCell id="4iKPOT6WPrsECau_S-sb-23" value="" style="rounded=1;whiteSpace=wrap;html=1;" vertex="1" parent="1">
          <mxGeometry x="20" y="10" width="250" height="750" as="geometry" />
        </mxCell>
        <mxCell id="4iKPOT6WPrsECau_S-sb-13" value="&lt;div style=&quot;color: rgb(204, 202, 194); background-color: rgb(36, 41, 54); font-family: Consolas, &amp;quot;Courier New&amp;quot;, monospace; font-size: 14px; line-height: 19px;&quot;&gt;ticketDataArray&lt;/div&gt;" style="rounded=1;whiteSpace=wrap;html=1;" vertex="1" parent="1">
          <mxGeometry x="70" y="50" width="150" height="40" as="geometry" />
        </mxCell>
        <mxCell id="4iKPOT6WPrsECau_S-sb-14" value="&lt;div style=&quot;color: rgb(204, 202, 194); background-color: rgb(36, 41, 54); font-family: Consolas, &amp;quot;Courier New&amp;quot;, monospace; font-size: 14px; line-height: 19px;&quot;&gt;&lt;div style=&quot;line-height: 19px;&quot;&gt;&lt;span style=&quot;color: #ffd173;&quot;&gt;setTicketDataArray&lt;/span&gt;&lt;/div&gt;&lt;/div&gt;" style="rounded=1;whiteSpace=wrap;html=1;" vertex="1" parent="1">
          <mxGeometry x="70" y="120" width="150" height="40" as="geometry" />
        </mxCell>
        <mxCell id="4iKPOT6WPrsECau_S-sb-15" value="&lt;div style=&quot;color: rgb(204, 202, 194); background-color: rgb(36, 41, 54); font-family: Consolas, &amp;quot;Courier New&amp;quot;, monospace; font-size: 14px; line-height: 19px;&quot;&gt;&lt;div style=&quot;line-height: 19px;&quot;&gt;&lt;div style=&quot;line-height: 19px;&quot;&gt;&lt;span style=&quot;color: #ffd173;&quot;&gt;updateTicketField&lt;/span&gt;&lt;/div&gt;&lt;/div&gt;&lt;/div&gt;" style="rounded=1;whiteSpace=wrap;html=1;" vertex="1" parent="1">
          <mxGeometry x="70" y="190" width="150" height="40" as="geometry" />
        </mxCell>
        <mxCell id="4iKPOT6WPrsECau_S-sb-16" value="&lt;div style=&quot;color: rgb(204, 202, 194); background-color: rgb(36, 41, 54); font-family: Consolas, &amp;quot;Courier New&amp;quot;, monospace; font-size: 14px; line-height: 19px;&quot;&gt;&lt;div style=&quot;line-height: 19px;&quot;&gt;&lt;div style=&quot;line-height: 19px;&quot;&gt;&lt;span style=&quot;color: #ffd173;&quot;&gt;createNewTicket&lt;/span&gt;&lt;/div&gt;&lt;/div&gt;&lt;/div&gt;" style="rounded=1;whiteSpace=wrap;html=1;" vertex="1" parent="1">
          <mxGeometry x="70" y="540" width="150" height="40" as="geometry" />
        </mxCell>
        <mxCell id="4iKPOT6WPrsECau_S-sb-17" value="&lt;div style=&quot;color: rgb(204, 202, 194); background-color: rgb(36, 41, 54); font-family: Consolas, &amp;quot;Courier New&amp;quot;, monospace; font-size: 14px; line-height: 19px;&quot;&gt;&lt;div style=&quot;line-height: 19px;&quot;&gt;&lt;div style=&quot;line-height: 19px;&quot;&gt;&lt;span style=&quot;color: #ffd173;&quot;&gt;updateFollowType&lt;/span&gt;&lt;/div&gt;&lt;/div&gt;&lt;/div&gt;" style="rounded=1;whiteSpace=wrap;html=1;" vertex="1" parent="1">
          <mxGeometry x="70" y="470" width="150" height="40" as="geometry" />
        </mxCell>
        <mxCell id="4iKPOT6WPrsECau_S-sb-18" value="&lt;div style=&quot;color: rgb(204, 202, 194); background-color: rgb(36, 41, 54); font-family: Consolas, &amp;quot;Courier New&amp;quot;, monospace; font-size: 14px; line-height: 19px;&quot;&gt;&lt;div style=&quot;line-height: 19px;&quot;&gt;&lt;div style=&quot;line-height: 19px;&quot;&gt;&lt;span style=&quot;color: #ffd173;&quot;&gt;updateTicketFields&lt;/span&gt;&lt;/div&gt;&lt;/div&gt;&lt;/div&gt;" style="rounded=1;whiteSpace=wrap;html=1;" vertex="1" parent="1">
          <mxGeometry x="70" y="260" width="150" height="40" as="geometry" />
        </mxCell>
        <mxCell id="4iKPOT6WPrsECau_S-sb-19" value="&lt;div style=&quot;color: rgb(204, 202, 194); background-color: rgb(36, 41, 54); font-family: Consolas, &amp;quot;Courier New&amp;quot;, monospace; font-size: 14px; line-height: 19px;&quot;&gt;&lt;div style=&quot;line-height: 19px;&quot;&gt;&lt;div style=&quot;line-height: 19px;&quot;&gt;&lt;span style=&quot;color: #ffd173;&quot;&gt;updateMaintFields&lt;/span&gt;&lt;/div&gt;&lt;/div&gt;&lt;/div&gt;" style="rounded=1;whiteSpace=wrap;html=1;" vertex="1" parent="1">
          <mxGeometry x="70" y="400" width="150" height="40" as="geometry" />
        </mxCell>
        <mxCell id="4iKPOT6WPrsECau_S-sb-20" value="&lt;div style=&quot;color: rgb(204, 202, 194); background-color: rgb(36, 41, 54); font-family: Consolas, &amp;quot;Courier New&amp;quot;, monospace; font-size: 14px; line-height: 19px;&quot;&gt;&lt;div style=&quot;line-height: 19px;&quot;&gt;&lt;div style=&quot;line-height: 19px;&quot;&gt;&lt;span style=&quot;color: #ffd173;&quot;&gt;updateMaintField&lt;/span&gt;&lt;/div&gt;&lt;/div&gt;&lt;/div&gt;" style="rounded=1;whiteSpace=wrap;html=1;" vertex="1" parent="1">
          <mxGeometry x="70" y="330" width="150" height="40" as="geometry" />
        </mxCell>
        <mxCell id="4iKPOT6WPrsECau_S-sb-21" value="&lt;div style=&quot;color: rgb(204, 202, 194); background-color: rgb(36, 41, 54); font-family: Consolas, &amp;quot;Courier New&amp;quot;, monospace; font-size: 14px; line-height: 19px;&quot;&gt;&lt;div style=&quot;line-height: 19px;&quot;&gt;&lt;div style=&quot;line-height: 19px;&quot;&gt;&lt;div style=&quot;line-height: 19px;&quot;&gt;&lt;span style=&quot;color: #ffd173;&quot;&gt;removeTicket&lt;/span&gt;&lt;/div&gt;&lt;/div&gt;&lt;/div&gt;&lt;/div&gt;" style="rounded=1;whiteSpace=wrap;html=1;" vertex="1" parent="1">
          <mxGeometry x="70" y="680" width="150" height="40" as="geometry" />
        </mxCell>
        <mxCell id="4iKPOT6WPrsECau_S-sb-22" value="&lt;div style=&quot;color: rgb(204, 202, 194); background-color: rgb(36, 41, 54); font-family: Consolas, &amp;quot;Courier New&amp;quot;, monospace; font-size: 14px; line-height: 19px;&quot;&gt;&lt;div style=&quot;line-height: 19px;&quot;&gt;&lt;div style=&quot;line-height: 19px;&quot;&gt;&lt;div style=&quot;line-height: 19px;&quot;&gt;&lt;div style=&quot;line-height: 19px;&quot;&gt;&lt;span style=&quot;color: #ffd173;&quot;&gt;updateAllTicketData&lt;/span&gt;&lt;/div&gt;&lt;/div&gt;&lt;/div&gt;&lt;/div&gt;&lt;/div&gt;" style="rounded=1;whiteSpace=wrap;html=1;" vertex="1" parent="1">
          <mxGeometry x="70" y="610" width="150" height="40" as="geometry" />
        </mxCell>
        <mxCell id="4iKPOT6WPrsECau_S-sb-24" value="&lt;b&gt;useTechSup&lt;/b&gt;" style="text;html=1;strokeColor=none;fillColor=none;align=center;verticalAlign=middle;whiteSpace=wrap;rounded=0;" vertex="1" parent="1">
          <mxGeometry x="50" y="20" width="60" height="30" as="geometry" />
        </mxCell>
        <mxCell id="4iKPOT6WPrsECau_S-sb-32" value="" style="edgeStyle=orthogonalEdgeStyle;rounded=0;orthogonalLoop=1;jettySize=auto;html=1;" edge="1" parent="1" source="4iKPOT6WPrsECau_S-sb-25" target="4iKPOT6WPrsECau_S-sb-15">
          <mxGeometry relative="1" as="geometry" />
        </mxCell>
        <mxCell id="4iKPOT6WPrsECau_S-sb-25" value="&lt;div style=&quot;color: rgb(204, 202, 194); background-color: rgb(36, 41, 54); font-family: Consolas, &amp;quot;Courier New&amp;quot;, monospace; font-size: 14px; line-height: 19px;&quot;&gt;&lt;span style=&quot;color: #b8cfe6;font-style: italic;&quot;&gt;更新Ticket 中的一个value(ticketDataArray[ticketNo] === undefined 不会被更新)&lt;/span&gt;&lt;/div&gt;" style="text;html=1;strokeColor=none;fillColor=none;align=center;verticalAlign=middle;whiteSpace=wrap;rounded=0;" vertex="1" parent="1">
          <mxGeometry x="-270" y="170" width="270" height="80" as="geometry" />
        </mxCell>
        <mxCell id="4iKPOT6WPrsECau_S-sb-31" value="" style="edgeStyle=orthogonalEdgeStyle;rounded=0;orthogonalLoop=1;jettySize=auto;html=1;" edge="1" parent="1" source="4iKPOT6WPrsECau_S-sb-27" target="4iKPOT6WPrsECau_S-sb-18">
          <mxGeometry relative="1" as="geometry" />
        </mxCell>
        <mxCell id="4iKPOT6WPrsECau_S-sb-27" value="&lt;div style=&quot;color: rgb(204, 202, 194); background-color: rgb(36, 41, 54); font-family: Consolas, &amp;quot;Courier New&amp;quot;, monospace; font-size: 14px; line-height: 19px;&quot;&gt;&lt;span style=&quot;color: #b8cfe6;font-style: italic;&quot;&gt;更新Ticket 中的value集合(ticketDataArray[ticketNo] === undefined 会被更新)&lt;/span&gt;&lt;/div&gt;" style="text;html=1;strokeColor=none;fillColor=none;align=center;verticalAlign=middle;whiteSpace=wrap;rounded=0;" vertex="1" parent="1">
          <mxGeometry x="-270" y="260" width="270" height="40" as="geometry" />
        </mxCell>
        <mxCell id="4iKPOT6WPrsECau_S-sb-33" value="" style="edgeStyle=orthogonalEdgeStyle;rounded=0;orthogonalLoop=1;jettySize=auto;html=1;" edge="1" parent="1" source="4iKPOT6WPrsECau_S-sb-29" target="4iKPOT6WPrsECau_S-sb-20">
          <mxGeometry relative="1" as="geometry" />
        </mxCell>
        <mxCell id="4iKPOT6WPrsECau_S-sb-29" value="&lt;div style=&quot;color: rgb(204, 202, 194); background-color: rgb(36, 41, 54); font-family: Consolas, &amp;quot;Courier New&amp;quot;, monospace; font-size: 14px; line-height: 19px;&quot;&gt;&lt;span style=&quot;color: #b8cfe6;font-style: italic;&quot;&gt;更新Maint 中的一个value(ticketDataArray[ticketNo] === undefined 不会被更新)&lt;/span&gt;&lt;/div&gt;" style="text;html=1;strokeColor=none;fillColor=none;align=center;verticalAlign=middle;whiteSpace=wrap;rounded=0;" vertex="1" parent="1">
          <mxGeometry x="-270" y="320" width="270" height="60" as="geometry" />
        </mxCell>
        <mxCell id="4iKPOT6WPrsECau_S-sb-35" value="" style="edgeStyle=orthogonalEdgeStyle;rounded=0;orthogonalLoop=1;jettySize=auto;html=1;" edge="1" parent="1" source="4iKPOT6WPrsECau_S-sb-34" target="4iKPOT6WPrsECau_S-sb-19">
          <mxGeometry relative="1" as="geometry" />
        </mxCell>
        <mxCell id="4iKPOT6WPrsECau_S-sb-34" value="&lt;div style=&quot;color: rgb(204, 202, 194); background-color: rgb(36, 41, 54); font-family: Consolas, &amp;quot;Courier New&amp;quot;, monospace; font-size: 14px; line-height: 19px;&quot;&gt;&lt;span style=&quot;color: #b8cfe6;font-style: italic;&quot;&gt;更新Maint 中的value集合(ticketDataArray[ticketNo] === undefined 会被更新)&lt;/span&gt;&lt;/div&gt;" style="text;html=1;strokeColor=none;fillColor=none;align=center;verticalAlign=middle;whiteSpace=wrap;rounded=0;" vertex="1" parent="1">
          <mxGeometry x="-270" y="395" width="270" height="50" as="geometry" />
        </mxCell>
        <mxCell id="4iKPOT6WPrsECau_S-sb-37" value="" style="edgeStyle=orthogonalEdgeStyle;rounded=0;orthogonalLoop=1;jettySize=auto;html=1;" edge="1" parent="1" source="4iKPOT6WPrsECau_S-sb-36" target="4iKPOT6WPrsECau_S-sb-17">
          <mxGeometry relative="1" as="geometry" />
        </mxCell>
        <mxCell id="4iKPOT6WPrsECau_S-sb-36" value="&lt;div style=&quot;color: rgb(204, 202, 194); background-color: rgb(36, 41, 54); font-family: Consolas, &amp;quot;Courier New&amp;quot;, monospace; font-size: 14px; line-height: 19px;&quot;&gt;&lt;span style=&quot;color: #b8cfe6;font-style: italic;&quot;&gt;更新Result Code/跟进部门，会删除/创建同系列订单 follow up ticket 和 maint&lt;/span&gt;&lt;/div&gt;" style="text;html=1;strokeColor=none;fillColor=none;align=center;verticalAlign=middle;whiteSpace=wrap;rounded=0;" vertex="1" parent="1">
          <mxGeometry x="-270" y="450" width="270" height="80" as="geometry" />
        </mxCell>
        <mxCell id="4iKPOT6WPrsECau_S-sb-39" value="" style="edgeStyle=orthogonalEdgeStyle;rounded=0;orthogonalLoop=1;jettySize=auto;html=1;" edge="1" parent="1" source="4iKPOT6WPrsECau_S-sb-38" target="4iKPOT6WPrsECau_S-sb-16">
          <mxGeometry relative="1" as="geometry" />
        </mxCell>
        <mxCell id="4iKPOT6WPrsECau_S-sb-38" value="&lt;div style=&quot;color: rgb(204, 202, 194); background-color: rgb(36, 41, 54); font-family: Consolas, &amp;quot;Courier New&amp;quot;, monospace; font-size: 14px; line-height: 19px;&quot;&gt;&lt;span style=&quot;color: #b8cfe6;font-style: italic;&quot;&gt;新建系列Ticket，没有待followUpTicket, followTicket = false&lt;/span&gt;&lt;/div&gt;" style="text;html=1;strokeColor=none;fillColor=none;align=center;verticalAlign=middle;whiteSpace=wrap;rounded=0;" vertex="1" parent="1">
          <mxGeometry x="-270" y="530" width="270" height="60" as="geometry" />
        </mxCell>
        <mxCell id="4iKPOT6WPrsECau_S-sb-43" value="" style="edgeStyle=orthogonalEdgeStyle;rounded=0;orthogonalLoop=1;jettySize=auto;html=1;" edge="1" parent="1" source="4iKPOT6WPrsECau_S-sb-40" target="4iKPOT6WPrsECau_S-sb-21">
          <mxGeometry relative="1" as="geometry" />
        </mxCell>
        <mxCell id="4iKPOT6WPrsECau_S-sb-40" value="&lt;div style=&quot;color: rgb(204, 202, 194); background-color: rgb(36, 41, 54); font-family: Consolas, &amp;quot;Courier New&amp;quot;, monospace; font-size: 14px; line-height: 19px;&quot;&gt;&lt;span style=&quot;color: #b8cfe6;font-style: italic;&quot;&gt;删除系列订单Ticket/Maint&lt;/span&gt;&lt;/div&gt;" style="text;html=1;strokeColor=none;fillColor=none;align=center;verticalAlign=middle;whiteSpace=wrap;rounded=0;" vertex="1" parent="1">
          <mxGeometry x="-255" y="675" width="240" height="50" as="geometry" />
        </mxCell>
        <mxCell id="4iKPOT6WPrsECau_S-sb-42" style="edgeStyle=orthogonalEdgeStyle;rounded=0;orthogonalLoop=1;jettySize=auto;html=1;exitX=0.5;exitY=1;exitDx=0;exitDy=0;" edge="1" parent="1" source="4iKPOT6WPrsECau_S-sb-40" target="4iKPOT6WPrsECau_S-sb-40">
          <mxGeometry relative="1" as="geometry" />
        </mxCell>
        <mxCell id="4iKPOT6WPrsECau_S-sb-47" value="" style="edgeStyle=orthogonalEdgeStyle;rounded=0;orthogonalLoop=1;jettySize=auto;html=1;" edge="1" parent="1" source="4iKPOT6WPrsECau_S-sb-44" target="4iKPOT6WPrsECau_S-sb-22">
          <mxGeometry relative="1" as="geometry" />
        </mxCell>
        <mxCell id="4iKPOT6WPrsECau_S-sb-44" value="&lt;div style=&quot;color: rgb(204, 202, 194); background-color: rgb(36, 41, 54); font-family: Consolas, &amp;quot;Courier New&amp;quot;, monospace; font-size: 14px; line-height: 19px;&quot;&gt;&lt;span style=&quot;color: #b8cfe6;font-style: italic;&quot;&gt;更新所有Ticket data&lt;/span&gt;&lt;/div&gt;" style="text;html=1;strokeColor=none;fillColor=none;align=center;verticalAlign=middle;whiteSpace=wrap;rounded=0;" vertex="1" parent="1">
          <mxGeometry x="-255" y="605" width="240" height="50" as="geometry" />
        </mxCell>
      </root>
    </mxGraphModel>
  </diagram>
</mxfile>
